<?xml version="1.0" encoding="UTF-8" standalone="no"?>
<!-- Creator: CorelDRAW 2020 (64-Bit) -->

<svg
   xmlns:dc="http://purl.org/dc/elements/1.1/"
   xmlns:cc="http://creativecommons.org/ns#"
   xmlns:rdf="http://www.w3.org/1999/02/22-rdf-syntax-ns#"
   xmlns:svg="http://www.w3.org/2000/svg"
   xmlns="http://www.w3.org/2000/svg"
   xmlns:sodipodi="http://sodipodi.sourceforge.net/DTD/sodipodi-0.dtd"
   xmlns:inkscape="http://www.inkscape.org/namespaces/inkscape"
   xml:space="preserve"
   width="16.25102mm"
   height="4.3481688mm"
   version="1.1"
   style="clip-rule:evenodd;fill-rule:evenodd;image-rendering:optimizeQuality;shape-rendering:geometricPrecision;text-rendering:geometricPrecision"
   viewBox="0 0 1188.0126 317.86998"
   id="svg12"
   sodipodi:docname="muun logo white.svg"
   inkscape:version="0.92.4 (5da689c313, 2019-01-14)"><metadata
   id="metadata16"><rdf:RDF><cc:Work
       rdf:about=""><dc:format>image/svg+xml</dc:format><dc:type
         rdf:resource="http://purl.org/dc/dcmitype/StillImage" /><dc:title></dc:title></cc:Work></rdf:RDF></metadata><sodipodi:namedview
   pagecolor="#ffffff"
   bordercolor="#666666"
   borderopacity="1"
   objecttolerance="10"
   gridtolerance="10"
   guidetolerance="10"
   inkscape:pageopacity="0"
   inkscape:pageshadow="2"
   inkscape:window-width="1920"
   inkscape:window-height="1017"
   id="namedview14"
   showgrid="false"
   fit-margin-top="0"
   fit-margin-left="0"
   fit-margin-right="0"
   fit-margin-bottom="0"
   inkscape:zoom="14.454113"
   inkscape:cx="31.347937"
   inkscape:cy="8.2468737"
   inkscape:window-x="-8"
   inkscape:window-y="-8"
   inkscape:window-maximized="1"
   inkscape:current-layer="Vrstva_x0020_1" />
 <defs
   id="defs4">
  <style
   type="text/css"
   id="style2">
   <![CDATA[
    .fil1 {fill:none}
    .fil0 {fill:black}
   ]]>
  </style>
 </defs>
 <g
   id="Vrstva_x0020_1"
   transform="translate(-31.032445,-27.327529)">
  <metadata
   id="CorelCorpID_0Corel-Layer" />
  <path
   class="fil0"
   d="m 129.33859,296.03753 v 49.15 H 31.028589 v -173.86 c 0,-39.64 16.19,-75.660001 42.26,-101.740001 26.08,-26.08 62.090001,-42.26 101.740001,-42.26 36.27,0 69.49,13.55 94.84,35.81 25.37,-22.26 58.59,-35.81 94.85,-35.81 39.64,0 75.66,16.19 101.73,42.26 5.08,5.08 9.79,10.54 14.07,16.33 v -9.44 -49.15 h 98.31 V 201.18753 c 0,12.52 5.15,23.93 13.46,32.24 8.3,8.3 19.72,13.46 32.23,13.46 12.52,0 23.93,-5.16 32.23,-13.46 8.3,-8.3 13.46,-19.72 13.46,-32.24 V 27.327529 h 98.31 V 201.18753 c 0,12.52 5.16,23.93 13.46,32.24 8.3,8.3 19.72,13.46 32.23,13.46 12.52,0 23.93,-5.16 32.24,-13.46 8.3,-8.3 13.45,-19.72 13.45,-32.24 v -124.700001 -49.15 h 98.31 v 60 c 4.56,-6.31 9.61,-12.25 15.1,-17.74 26.08,-26.08 62.09001,-42.26 101.74001,-42.26 39.65,0 75.66,16.19 101.74,42.26 26.08,26.08 42.26,62.090001 42.26,101.740001 v 124.71 49.15 h -98.31 v -173.86 c 0,-12.52 -5.15,-23.93 -13.46,-32.23 -8.3,-8.3 -19.72,-13.46 -32.23,-13.46 -12.52,0 -23.93,5.15 -32.23,13.46 -8.3,8.3 -13.46,19.72 -13.46,32.23 v 173.86 h -98.31001 v -60.01 c -4.56,6.32 -9.61,12.25 -15.1,17.74 -26.08,26.08 -62.09,42.27 -101.74,42.27 -36.26,0 -69.49,-13.55 -94.84,-35.81 -25.35,22.27 -58.58,35.81 -94.84,35.81 -39.64,0 -75.66,-16.19 -101.74,-42.27 -5.08,-5.08 -9.78,-10.54 -14.07,-16.33 v 9.44 49.15 h -98.31 v -173.86 c 0,-12.52 -5.16,-23.93 -13.46,-32.23 -8.3,-8.3 -19.72,-13.46 -32.23,-13.46 -12.52,0 -23.93,5.15 -32.24,13.46 -8.3,8.3 -13.46,19.72 -13.46,32.23 v 173.86 h -98.31 v -173.86 c 0,-12.52 -5.15,-23.93 -13.46,-32.23 -8.3,-8.3 -19.72,-13.46 -32.23,-13.46 -12.52,0 -23.93,5.15 -32.23,13.46 -8.3,8.3 -13.46,19.72 -13.46,32.23 v 124.71 z"
   id="path7"
   inkscape:connector-curvature="0"
   style="fill:#000000;stroke:none"
   inkscape:export-xdpi="300.09192"
   inkscape:export-ydpi="300.09192" />
  <rect
   class="fil1"
   x="0"
   y="0"
   width="1237.89"
   height="371.37"
   id="rect9"
   style="fill:none" />
 </g>
</svg>